<svg xmlns="http://www.w3.org/2000/svg" width="333.4" height="151.584" viewBox="0 0 333.4 151.584">
  <g id="Groupe_3330" data-name="Groupe 3330" transform="translate(-472.807 0.13)">
    <path id="Tracé_938" data-name="Tracé 938" d="M368.054,553.627H216.13c-26.4,0-50.194-21.1-60.236-53.418l-30.5-98.166h333.4l-30.5,98.166C418.246,532.53,394.455,553.627,368.054,553.627Z" transform="translate(347.416 -402.173)" fill="#fff"/>
    <g id="logo_ESUM_1_2_" data-name="logo ESUM_1 (2)" transform="translate(567.371 11.086)">
      <g id="Groupe_3324" data-name="Groupe 3324" transform="translate(15.31 7.41)">
        <path id="Tracé_880" data-name="Tracé 880" d="M65.888,113.3a6.974,6.974,0,0,1-5.153-1.832c-2.967-3.053-2.326-9.561,1.758-17.913,7.962-16.326,26.65-35.247,41.645-42.207,6.856-3.175,12.083-3.437,14.72-.739,2.967,3.022,2.326,9.555-1.752,17.913C109.17,84.832,90.451,103.752,75.443,110.7A23.566,23.566,0,0,1,65.888,113.3Zm38.336-61.787.073.153C89.345,58.59,70.718,77.438,62.781,93.691c-4.011,8.218-4.677,14.61-1.832,17.529,2.534,2.589,7.626,2.3,14.336-.812,14.946-6.918,33.58-25.771,41.517-42.024,4.017-8.218,4.677-14.61,1.832-17.529-2.534-2.583-7.626-2.3-14.336.812Z" transform="translate(-32.284 -23.514)" fill="#b51019"/>
        <path id="Tracé_881" data-name="Tracé 881" d="M62.959,113.46c-2.57,0-4.567-.739-5.855-2.21-3.053-3.45-1.917-10.569,3.053-19.537,9.354-16.906,29.618-35.625,45.18-41.731,6.832-2.68,11.973-2.583,14.476.269,3.022,3.45,1.911,10.569-3.053,19.537-9.354,16.9-29.624,35.619-45.18,41.725A24.367,24.367,0,0,1,62.959,113.46Zm50.987-65.072a24.037,24.037,0,0,0-8.493,1.923c-15.5,6.105-35.686,24.727-45.009,41.572-4.884,8.828-6.014,15.807-3.089,19.141,2.4,2.741,7.406,2.8,14.1.177,15.5-6.105,35.686-24.727,45.009-41.572,4.884-8.829,6.008-15.807,3.089-19.141A7.109,7.109,0,0,0,113.946,48.388Z" transform="translate(-30.93 -23.233)" fill="#b51019"/>
        <path id="Tracé_882" data-name="Tracé 882" d="M60.155,113.586c-3.053,0-5.318-.891-6.716-2.656-3.053-3.92-1.423-11.637,4.488-21.18,10.794-17.413,32.615-35.76,48.642-40.907,6.771-2.167,11.8-1.7,14.152,1.319,3.053,3.914,1.429,11.631-4.488,21.174C105.445,88.749,83.624,107.1,67.591,112.243A24.9,24.9,0,0,1,60.155,113.586Zm53.881-65.744a24.569,24.569,0,0,0-7.327,1.331c-15.99,5.116-37.726,23.4-48.483,40.76-5.831,9.415-7.473,16.992-4.506,20.8,2.265,2.894,7.156,3.321,13.78,1.221,15.966-5.116,37.707-23.4,48.465-40.754,5.831-9.415,7.473-16.992,4.506-20.789C119.134,48.691,116.954,47.843,114.036,47.843Z" transform="translate(-29.573 -23.024)" fill="#b51019"/>
        <path id="Tracé_883" data-name="Tracé 883" d="M57.455,113.679c-3.553,0-6.148-1.087-7.632-3.23C46.77,106,48.968,97.683,55.929,87.6,68.2,69.769,91.536,51.965,107.953,47.917c6.765-1.661,11.521-.836,13.756,2.393,3.053,4.445.855,12.767-6.105,22.847C103.338,90.991,80,108.795,63.585,112.843A26.172,26.172,0,0,1,57.455,113.679Zm56.592-66.257a25.57,25.57,0,0,0-6.026.83C91.676,52.276,68.426,70.019,56.2,87.792c-6.85,9.958-9.067,18.145-6.105,22.462,2.149,3.108,6.783,3.889,13.4,2.259,16.35-4.023,39.6-21.766,51.829-39.539,6.844-9.958,9.06-18.145,6.075-22.462C119.981,48.461,117.484,47.423,114.046,47.423Z" transform="translate(-28.228 -22.86)" fill="#b51019"/>
        <path id="Tracé_884" data-name="Tracé 884" d="M55.045,113.735c-4.274,0-7.278-1.325-8.847-3.914-3.053-5.019-.189-13.957,7.827-24.52,13.78-18.145,38.6-35.21,55.285-38.031v0c6.624-1.123,11.216.092,13.279,3.5,3.053,5.019.189,13.957-7.827,24.52-13.774,18.152-38.574,35.21-55.285,38.037A26.9,26.9,0,0,1,55.045,113.735Zm58.7-66.55a26.4,26.4,0,0,0-4.384.4C92.734,50.4,68.025,67.406,54.294,85.5c-7.809,10.294-10.727,19.324-7.8,24.153,1.984,3.285,6.46,4.439,12.931,3.346,16.637-2.809,41.34-19.812,55.071-37.909,7.815-10.288,10.733-19.312,7.809-24.141-1.5-2.479-4.42-3.749-8.554-3.749Z" transform="translate(-26.874 -22.775)" fill="#b51019"/>
        <path id="Tracé_885" data-name="Tracé 885" d="M52.995,113.76c-5.141,0-8.688-1.63-10.324-4.768-2.918-5.587.72-15.367,9.769-26.174C67.745,64.465,93.956,48.34,110.832,46.869c6.447-.568,10.849,1.044,12.736,4.652,2.912,5.587-.727,15.374-9.738,26.18-15.306,18.347-41.517,34.471-58.393,35.949C54.564,113.724,53.758,113.76,52.995,113.76Zm57.819-66.727V47.2C94,48.67,67.9,64.74,52.647,83.032c-8.92,10.7-12.547,20.343-9.7,25.808,1.832,3.474,6.105,5.025,12.406,4.475,16.814-1.471,42.909-17.541,58.161-35.833,8.951-10.7,12.571-20.343,9.72-25.808-1.832-3.474-6.105-5.019-12.406-4.469Z" transform="translate(-25.581 -22.734)" fill="#b51019"/>
        <path id="Tracé_886" data-name="Tracé 886" d="M51.333,113.762h0c-6.246,0-10.434-2.021-12.119-5.843-2.766-6.289,1.648-16.68,11.82-27.8,16.845-18.414,44.338-33.391,61.3-33.391h0c6.246,0,10.44,2.021,12.119,5.843,2.772,6.289-1.648,16.68-11.814,27.8C95.787,98.791,68.288,113.762,51.333,113.762Zm60.988-66.7c-16.876,0-44.265,14.928-61.055,33.287-10.074,10.99-14.47,21.271-11.753,27.432,1.624,3.663,5.709,5.641,11.808,5.641h0c16.875,0,44.259-14.928,61.055-33.287,10.074-10.99,14.47-21.265,11.759-27.432-1.624-3.663-5.709-5.641-11.814-5.641Z" transform="translate(-24.304 -22.723)" fill="#b51019"/>
        <path id="Tracé_887" data-name="Tracé 887" d="M50.109,113.767a28.336,28.336,0,0,1-2.833-.134c-6.026-.574-9.976-3.022-11.436-7.082-2.534-7.058,2.723-18.029,14.043-29.343C68.291,58.861,97,45.246,113.893,46.857c6.026.574,9.976,3.053,11.436,7.082,2.534,7.058-2.723,18.029-14.043,29.343C93.867,100.622,67.235,113.761,50.109,113.767Zm60.939-66.7C94,47.065,67.479,60.143,50.14,77.421,38.894,88.643,33.655,99.48,36.158,106.41c1.41,3.981,5.263,6.325,11.136,6.887,16.8,1.606,45.394-11.967,63.723-30.253C122.258,71.823,127.5,60.985,125,54.056c-1.386-3.932-5.257-6.3-11.155-6.863C112.959,47.108,112.013,47.065,111.048,47.065Z" transform="translate(-23.062 -22.722)" fill="#b51019"/>
        <path id="Tracé_888" data-name="Tracé 888" d="M49.427,113.775a31.14,31.14,0,0,1-6.105-.562c-5.782-1.16-9.476-4.066-10.678-8.4-2.186-7.888,3.969-19.385,16.485-30.759,19.9-18.127,49.686-30.155,66.379-26.809,5.788,1.16,9.482,4.066,10.685,8.4,2.186,7.888-3.975,19.391-16.485,30.759C92.043,102.492,66.6,113.769,49.427,113.775Zm59.95-66.757c-17.1,0-42.427,11.246-60.041,27.285C36.929,85.586,30.811,96.942,32.961,104.727c1.166,4.2,4.768,7.021,10.422,8.157a31.137,31.137,0,0,0,6.063.556c17.1,0,42.427-11.246,60.047-27.279,12.4-11.289,18.524-22.663,16.369-30.43-1.16-4.2-4.762-7.021-10.416-8.157a31.138,31.138,0,0,0-6.069-.556Z" transform="translate(-21.891 -22.706)" fill="#b51019"/>
        <path id="Tracé_889" data-name="Tracé 889" d="M49.367,113.81a32.793,32.793,0,0,1-9.9-1.362c-5.544-1.764-8.951-5.159-9.848-9.812-1.7-8.767,5.409-20.74,19.061-32.011,21.369-17.749,52.122-27.945,68.461-22.743,5.544,1.771,8.951,5.159,9.854,9.811,1.7,8.767-5.416,20.759-19.031,32.017C90.335,104.316,66.389,113.81,49.367,113.81Zm57.862-66.953c-16.943,0-40.785,9.47-58.362,24.025C35.343,82.08,28.273,93.925,29.94,102.576c.879,4.518,4.207,7.821,9.622,9.549,16.247,5.177,46.829-4.994,68.18-22.676,13.518-11.2,20.594-23.042,18.927-31.687-.879-4.524-4.207-7.827-9.622-9.555a32.487,32.487,0,0,0-9.818-1.349Z" transform="translate(-20.788 -22.643)" fill="#b51019"/>
        <path id="Tracé_890" data-name="Tracé 890" d="M50.018,113.894a34.8,34.8,0,0,1-14.238-2.613c-5.3-2.406-8.389-6.337-8.938-11.356C25.785,90.241,33.906,77.9,48.571,66.888c22.9-17.169,54.394-25.319,70.225-18.127,5.293,2.406,8.383,6.331,8.932,11.356,1.062,9.677-7.064,22.022-21.723,33.031C88.769,106.085,66.649,113.894,50.018,113.894ZM104.54,46.471c-16.552,0-38.587,7.791-55.767,20.685-14.568,10.935-22.639,23.2-21.6,32.731.537,4.884,3.559,8.731,8.743,11.081C51.648,118.113,83,110,105.8,92.879c14.568-10.935,22.639-23.17,21.589-32.725-.531-4.884-3.553-8.737-8.737-11.088A34.508,34.508,0,0,0,104.54,46.471Z" transform="translate(-19.765 -22.495)" fill="#b51019"/>
        <path id="Tracé_891" data-name="Tracé 891" d="M51.412,114.057c-7.589,0-14.238-1.423-19.128-4.42-5.049-3.1-7.784-7.62-7.907-13.084C24.145,85.972,33.3,73.358,48.891,62.814c24.306-16.43,56.4-22.261,71.55-12.98,5.049,3.1,7.784,7.62,7.907,13.084.238,10.581-8.926,23.2-24.513,33.739C87.373,107.793,67.335,114.057,51.412,114.057ZM101.3,45.774c-15.844,0-35.809,6.252-52.22,17.352-15.5,10.446-24.6,22.944-24.367,33.421.122,5.342,2.8,9.769,7.748,12.821,15.044,9.219,46.975,3.4,71.184-12.974,15.49-10.477,24.6-22.981,24.367-33.452-.122-5.342-2.8-9.769-7.748-12.821C115.422,47.153,108.822,45.774,101.3,45.774Z" transform="translate(-18.84 -22.213)" fill="#b51019"/>
        <path id="Tracé_892" data-name="Tracé 892" d="M53.527,114.28c-10.037,0-18.756-2.235-24.52-6.869a17.177,17.177,0,0,1-6.716-15.044c.763-11.436,10.99-24.165,27.346-34.05,25.643-15.5,58.136-18.768,72.417-7.278a17.153,17.153,0,0,1,6.716,15.044c-.763,11.436-10.99,24.165-27.346,34.05C86.124,109.4,68.382,114.28,53.527,114.28ZM97.541,44.525c-14.787,0-32.469,4.884-47.733,14.1C33.55,68.489,23.384,81.091,22.627,92.41a16.829,16.829,0,0,0,6.594,14.763c14.183,11.411,46.493,8.132,72.044-7.327,16.265-9.83,26.431-22.456,27.188-33.782A16.85,16.85,0,0,0,121.859,51.3C116.12,46.735,107.493,44.525,97.541,44.525Z" transform="translate(-18.012 -21.727)" fill="#b51019"/>
        <path id="Tracé_893" data-name="Tracé 893" d="M56.22,114.712c-12.748,0-23.811-3.34-30.234-10.056a19.653,19.653,0,0,1-5.318-17.291C22.609,75.155,33.88,62.516,50.816,53.48,77.723,39.1,110.375,38.662,123.6,52.461a19.641,19.641,0,0,1,5.324,17.291c-1.942,12.211-13.212,24.849-30.149,33.885C84.97,111.006,69.652,114.712,56.22,114.712ZM93.4,42.765a92.647,92.647,0,0,0-42.427,10.99C34.13,62.742,22.927,75.32,21,87.39a19.336,19.336,0,0,0,5.245,17.04c13.133,13.695,45.6,13.206,72.386-1.087,16.845-8.987,28.049-21.558,29.972-33.635a19.336,19.336,0,0,0-5.226-17.01C116.975,46.038,106.028,42.765,93.4,42.765Z" transform="translate(-17.273 -21.036)" fill="#b51019"/>
        <path id="Tracé_894" data-name="Tracé 894" d="M59.333,115.28c-15.612,0-29.178-4.817-36.022-14.073a22.812,22.812,0,0,1-3.627-19.861C22.932,68.592,35.2,56.192,52.519,48.175c28.085-13,60.633-10.379,72.606,5.794h0a22.942,22.942,0,0,1,3.663,19.861c-3.26,12.76-15.526,25.155-32.823,33.171a88.529,88.529,0,0,1-36.633,8.279ZM89.1,40.232a88.151,88.151,0,0,0-36.462,8.279C35.424,56.448,23.213,68.769,20,81.432a22.453,22.453,0,0,0,3.578,19.574c11.887,16.076,44.271,18.628,72.2,5.69,17.2-7.974,29.4-20.288,32.634-32.97a22.48,22.48,0,0,0-3.572-19.58C118.055,45,104.593,40.232,89.1,40.232Z" transform="translate(-16.686 -20.066)" fill="#b51019"/>
        <path id="Tracé_895" data-name="Tracé 895" d="M62.542,116.01c-18.518,0-34.71-6.716-41.59-18.97-3.877-6.881-4.42-14.757-1.563-22.78,4.658-13.108,17.84-25.032,35.259-31.852,29.093-11.423,61.317-5.495,71.837,13.145,3.877,6.881,4.42,14.757,1.563,22.779-4.665,13.108-17.846,25.032-35.265,31.852a83.376,83.376,0,0,1-30.24,5.825ZM84.906,36.92a83.077,83.077,0,0,0-30.13,5.8c-17.333,6.808-30.442,18.64-35.07,31.651-2.821,7.937-2.29,15.709,1.539,22.5,10.44,18.524,42.476,24.361,71.434,13,17.327-6.808,30.442-18.634,35.07-31.651,2.821-7.937,2.29-15.709-1.539-22.5h0C119.365,43.606,103.314,36.92,84.906,36.92Z" transform="translate(-16.195 -18.775)" fill="#b51019"/>
        <path id="Tracé_896" data-name="Tracé 896" d="M65.6,116.928c-21.369,0-40.131-9.231-46.634-24.8-3.431-8.224-3.1-17.224.971-26.028C26.008,52.925,39.99,41.739,57.293,36.19c29.978-9.61,61.574-.177,70.427,21.039,3.425,8.218,3.089,17.217-.977,26.021-6.105,13.182-20.05,24.361-37.359,29.917A78.07,78.07,0,0,1,65.6,116.928ZM81.1,32.777a77.888,77.888,0,0,0-23.7,3.755C40.179,42.026,26.289,53.163,20.239,66.259c-4,8.7-4.359,17.608-.946,25.741,6.447,15.447,25.069,24.6,46.31,24.6a77.839,77.839,0,0,0,23.7-3.749c17.224-5.495,31.138-16.637,37.158-29.734,4.03-8.719,4.359-17.62.971-25.753C120.961,41.935,102.327,32.777,81.1,32.777Z" transform="translate(-15.818 -17.153)" fill="#b51019"/>
        <path id="Tracé_897" data-name="Tracé 897" d="M68.278,118.033c-24.123,0-45.254-12.321-50.889-31.577-2.857-9.769-1.459-19.977,4.048-29.55C29,43.76,43.221,33.789,60.444,29.54c30.71-7.565,61.36,5.641,68.326,29.447,2.857,9.769,1.459,19.977-4.054,29.55-7.559,13.145-21.778,23.115-39.008,27.365a72.8,72.8,0,0,1-17.431,2.131Zm9.6-90.263a72.6,72.6,0,0,0-17.329,2.1C43.392,34.095,29.251,44.01,21.73,57.076c-5.458,9.488-6.85,19.617-4.017,29.306,5.593,19.11,26.589,31.333,50.559,31.333a72.531,72.531,0,0,0,17.358-2.125c17.138-4.225,31.278-14.14,38.8-27.206,5.458-9.488,6.85-19.617,4.017-29.306C122.854,39.98,101.858,27.769,77.882,27.769Z" transform="translate(-15.557 -15.198)" fill="#b51019"/>
        <path id="Tracé_898" data-name="Tracé 898" d="M70.453,119.327c-26.748,0-49.924-16.088-54.2-39.3-2.088-11.338.653-23.152,7.723-33.256C32.8,34.168,47.423,25.322,64.109,22.5c31.254-5.287,60.633,11.918,65.5,38.348,2.094,11.344-.653,23.152-7.723,33.256-8.816,12.583-23.445,21.449-40.113,24.269a67.4,67.4,0,0,1-11.32.952Zm4.964-97.443a67.581,67.581,0,0,0-11.252.952c-16.595,2.8-31.138,11.6-39.905,24.129-7.021,10.025-9.769,21.748-7.675,33,4.274,23.048,27.279,39.026,53.862,39.026a67.438,67.438,0,0,0,11.245-.945c16.608-2.81,31.145-11.6,39.919-24.136,7.015-10.025,9.769-21.748,7.668-32.97h0c-4.243-23.079-27.273-39.057-53.862-39.057Z" transform="translate(-15.412 -12.915)" fill="#b51019"/>
        <path id="Tracé_899" data-name="Tracé 899" d="M71.981,120.8c-29.264,0-54.027-20.575-56.421-47.952-2.546-29.074,21.088-54.98,52.7-57.746a59.776,59.776,0,0,1,41.841,11.9c11.692,9.006,18.817,21.729,20.05,35.821s-3.572,27.829-13.524,38.757a59.689,59.689,0,0,1-39.16,18.988Q74.7,120.8,71.981,120.8ZM73.812,15.179q-2.747,0-5.495.238C36.9,18.164,13.411,43.9,15.939,72.808c2.375,27.2,27,47.623,56.085,47.623q2.711,0,5.458-.238a59.386,59.386,0,0,0,38.941-18.878c9.891-10.843,14.653-24.507,13.432-38.5s-8.3-26.626-19.922-35.583A58.912,58.912,0,0,0,73.788,15.2Z" transform="translate(-15.334 -10.313)" fill="#b51019"/>
        <path id="Tracé_900" data-name="Tracé 900" d="M72.83,122.449a57.52,57.52,0,1,1,57.52-57.518,57.52,57.52,0,0,1-57.52,57.518Zm0-114.679a57.184,57.184,0,1,0,57.184,57.184A57.184,57.184,0,0,0,72.83,7.77Z" transform="translate(-15.31 -7.41)" fill="#b51019"/>
      </g>
      <path id="Tracé_901" data-name="Tracé 901" d="M124.475,80.388a6.588,6.588,0,0,1,6.661,6.606V98.881c0,5.6-4.152,10.489-9.64,10.856A10.416,10.416,0,0,1,110.469,99.2V82.879a6.814,6.814,0,0,1,6.716-6.869V99.6a3.635,3.635,0,1,0,7.259.128Z" transform="translate(-37.06 -26.716)" fill="#39b54a"/>
      <path id="Tracé_902" data-name="Tracé 902" d="M168.623,82.608V107.6a6.667,6.667,0,0,1-6.661-6.667V81.686a3.663,3.663,0,0,0-3.791-3.6,3.755,3.755,0,0,0-3.443,3.816v22.926a3.328,3.328,0,0,1-3.327,3.334h-.147a3.327,3.327,0,0,1-3.327-3.334V81.686a3.605,3.605,0,0,0-7.131-.751,7.326,7.326,0,0,0-5.684-3.456,10.318,10.318,0,0,1,9.836-5.495,9.995,9.995,0,0,1,6.283,2.8,10.294,10.294,0,0,1,7.778-2.8,10.569,10.569,0,0,1,9.64,10.666" transform="translate(-46.656 -25.139)" fill="#39b54a"/>
      <path id="Tracé_903" data-name="Tracé 903" d="M101.089,94.011a10.3,10.3,0,0,0-2.528-3.773,10.52,10.52,0,0,0-4.06-2.406,10.988,10.988,0,0,0-1.758-.4,1.366,1.366,0,0,0-.165,0c-.183,0-.36-.043-.543-.061h-.085c-.183,0-1.423-.147-2.07-.2h-.14a3.53,3.53,0,0,1-.611-.061,3.73,3.73,0,0,1-3.175-3.419,3.663,3.663,0,0,1,3.663-3.816h2.5a6.716,6.716,0,0,0,6.777-6.661h-8.3a11.063,11.063,0,0,0-9.647,5.538l.2.409.079.183a16.149,16.149,0,0,1,1.221,4.549v.085a20.573,20.573,0,0,1,.177,2.442v1.233a7.271,7.271,0,0,1-.568,2.5,8.3,8.3,0,0,0,.806.855,10.52,10.52,0,0,0,4.06,2.406,10.236,10.236,0,0,0,1.746.4H89.4c.836.079,2.747.256,2.906.287a3.724,3.724,0,0,1,3.169,3.376,3.663,3.663,0,0,1-3.663,3.816H86.393a6.716,6.716,0,0,0-6.783,6.661H90.881c5.6,0,10.5-4.152,10.856-9.641a10.141,10.141,0,0,0-.647-4.335" transform="translate(-25.042 -25.626)" fill="#39b54a"/>
      <path id="Tracé_904" data-name="Tracé 904" d="M37.11,80.2h3.2a1.569,1.569,0,0,0,1.569-1.569v-3.2h-3.2A1.569,1.569,0,0,0,37.11,77Z" transform="translate(-8.49 -26.491)" fill="#39b54a"/>
      <path id="Tracé_905" data-name="Tracé 905" d="M29,82.724h2.442a1.3,1.3,0,0,0,1.288-1.282V79H30.288A1.3,1.3,0,0,0,29,80.3Z" transform="translate(-5.332 -27.881)" fill="#39b54a"/>
      <path id="Tracé_906" data-name="Tracé 906" d="M33.39,90.858h3.2a1.569,1.569,0,0,0,1.569-1.569v-3.2H34.984a1.569,1.569,0,0,0-1.569,1.569Z" transform="translate(-7.041 -30.642)" fill="#39b54a"/>
      <path id="Tracé_907" data-name="Tracé 907" d="M29.51,96.291h1.52a.849.849,0,0,0,.849-.849V93.91H30.353a.843.843,0,0,0-.843.849Z" transform="translate(-5.53 -33.688)" fill="#39b54a"/>
      <path id="Tracé_908" data-name="Tracé 908" d="M66.514,115.9h0l.745-1.441-7.07-.1c-1.832,0-1.789,1.02-4.652,1.02a5.981,5.981,0,0,1-4.628-1.722,7.3,7.3,0,0,1-1.642-5.159v-1.05H42.507v.946a15.972,15.972,0,0,0,1.52,7.211,10.99,10.99,0,0,0,4.542,4.762,14.208,14.208,0,0,0,6.966,1.618,14.769,14.769,0,0,0,4.31-.611h0a10.635,10.635,0,0,0,3.114-1.49,15.331,15.331,0,0,0,3.547-4" transform="translate(-10.59 -38.961)" fill="#39b54a"/>
      <path id="Tracé_909" data-name="Tracé 909" d="M50.836,81.305a5.127,5.127,0,0,1,4.274-1.789A4.884,4.884,0,0,1,59.145,81.2a8.008,8.008,0,0,1,1.508,5.141v1.178a6.484,6.484,0,0,1-4.274,6.105h4.347a5.176,5.176,0,0,0,.824-.067,6.716,6.716,0,0,0,5.794-6.337,1.934,1.934,0,0,0,0-.269v-.3a5.388,5.388,0,0,0,0-.543,18.981,18.981,0,0,0-.122-2.283v-.079a15.019,15.019,0,0,0-1.148-4.213A1.441,1.441,0,0,0,66,79.364a10.611,10.611,0,0,0-4.274-4.8l-.507-.275a13.157,13.157,0,0,0-6.105-1.343,12.962,12.962,0,0,0-6.783,1.7,10.99,10.99,0,0,0-4.384,4.97,17.443,17.443,0,0,0-1.459,7.168H49.26a8.433,8.433,0,0,1,1.575-5.495" transform="translate(-10.585 -25.522)" fill="#39b54a"/>
      <path id="Tracé_910" data-name="Tracé 910" d="M55.944,96.69H38.054a5.934,5.934,0,0,0-1.362.159c-2.564.611-3.993,2.918-3.993,5.678H50.107a5.837,5.837,0,0,0,5.837-5.837" transform="translate(-6.773 -34.77)" fill="#39b54a"/>
    </g>
  </g>
</svg>
